<svg width="206" height="37" viewBox="0 0 206 37" fill="none" xmlns="http://www.w3.org/2000/svg">
<path d="M0.695984 36V2.49598H7.99198V29.52H20.76V36H0.695984Z" fill="#121212"/>
<path d="M35.8084 36.576C33.8884 36.576 32.1764 36.272 30.6724 35.664C29.1684 35.024 27.8884 34.144 26.8324 33.024C25.8084 31.872 25.0244 30.48 24.4804 28.848C23.9684 27.216 23.7124 25.392 23.7124 23.376C23.7124 21.392 23.9684 19.6 24.4804 18C24.9924 16.368 25.7444 14.976 26.7364 13.824C27.7604 12.672 29.0084 11.792 30.4804 11.184C31.9524 10.544 33.6324 10.224 35.5204 10.224C37.6004 10.224 39.3764 10.576 40.8484 11.28C42.3524 11.984 43.5684 12.928 44.4964 14.112C45.4564 15.296 46.1444 16.672 46.5604 18.24C47.0084 19.776 47.2324 21.392 47.2324 23.088V25.2H31.0564V25.584C31.0564 27.248 31.5044 28.576 32.4004 29.568C33.2964 30.528 34.7044 31.008 36.6244 31.008C38.0964 31.008 39.2964 30.72 40.2244 30.144C41.1524 29.536 42.0164 28.816 42.8164 27.984L46.3684 32.4C45.2484 33.712 43.7764 34.736 41.9524 35.472C40.1604 36.208 38.1124 36.576 35.8084 36.576ZM35.6644 15.456C34.2244 15.456 33.0884 15.936 32.2564 16.896C31.4564 17.824 31.0564 19.072 31.0564 20.64V21.024H39.8884V20.592C39.8884 19.056 39.5364 17.824 38.8324 16.896C38.1604 15.936 37.1044 15.456 35.6644 15.456Z" fill="#121212"/>
<path d="M62.4735 36.576C60.6175 36.576 58.9535 36.272 57.4815 35.664C56.0415 35.056 54.8095 34.176 53.7855 33.024C52.7935 31.872 52.0255 30.48 51.4815 28.848C50.9375 27.216 50.6655 25.392 50.6655 23.376C50.6655 21.36 50.9375 19.536 51.4815 17.904C52.0255 16.272 52.7935 14.896 53.7855 13.776C54.8095 12.624 56.0415 11.744 57.4815 11.136C58.9535 10.528 60.6175 10.224 62.4735 10.224C64.3295 10.224 65.9775 10.528 67.4175 11.136C68.8895 11.744 70.1215 12.624 71.1135 13.776C72.1375 14.896 72.9215 16.272 73.4655 17.904C74.0095 19.536 74.2815 21.36 74.2815 23.376C74.2815 25.392 74.0095 27.216 73.4655 28.848C72.9215 30.48 72.1375 31.872 71.1135 33.024C70.1215 34.176 68.8895 35.056 67.4175 35.664C65.9775 36.272 64.3295 36.576 62.4735 36.576ZM62.4735 30.96C63.8815 30.96 64.9695 30.528 65.7375 29.664C66.5055 28.8 66.8895 27.568 66.8895 25.968V20.832C66.8895 19.232 66.5055 18 65.7375 17.136C64.9695 16.272 63.8815 15.84 62.4735 15.84C61.0655 15.84 59.9775 16.272 59.2095 17.136C58.4415 18 58.0575 19.232 58.0575 20.832V25.968C58.0575 27.568 58.4415 28.8 59.2095 29.664C59.9775 30.528 61.0655 30.96 62.4735 30.96Z" fill="#121212"/>
<path d="M79.3432 36V10.8H86.4472V15.072H86.7352C87.1832 13.76 87.9672 12.624 89.0872 11.664C90.2072 10.704 91.7592 10.224 93.7432 10.224C96.3352 10.224 98.2872 11.088 99.5992 12.816C100.943 14.544 101.615 17.008 101.615 20.208V36H94.5112V20.784C94.5112 19.152 94.2552 17.952 93.7432 17.184C93.2312 16.384 92.3192 15.984 91.0072 15.984C90.4312 15.984 89.8712 16.064 89.3272 16.224C88.7832 16.352 88.2872 16.576 87.8392 16.896C87.4232 17.216 87.0872 17.616 86.8312 18.096C86.5752 18.544 86.4472 19.072 86.4472 19.68V36H79.3432Z" fill="#121212"/>
<path d="M126.561 36C125.281 36 124.209 35.6 123.345 34.8C122.513 34 121.985 32.928 121.761 31.584H121.473C121.089 33.216 120.241 34.464 118.929 35.328C117.617 36.16 116.001 36.576 114.081 36.576C111.553 36.576 109.617 35.904 108.273 34.56C106.929 33.216 106.257 31.44 106.257 29.232C106.257 26.576 107.217 24.608 109.137 23.328C111.089 22.016 113.729 21.36 117.057 21.36H121.041V19.776C121.041 18.56 120.721 17.6 120.081 16.896C119.441 16.16 118.369 15.792 116.865 15.792C115.457 15.792 114.337 16.096 113.505 16.704C112.673 17.312 111.985 18 111.441 18.768L107.217 15.024C108.241 13.52 109.521 12.352 111.057 11.52C112.625 10.656 114.737 10.224 117.393 10.224C120.977 10.224 123.665 11.008 125.457 12.576C127.249 14.144 128.145 16.432 128.145 19.44V30.48H130.497V36H126.561ZM116.721 31.632C117.905 31.632 118.913 31.376 119.745 30.864C120.609 30.352 121.041 29.52 121.041 28.368V25.392H117.585C114.801 25.392 113.409 26.336 113.409 28.224V28.944C113.409 29.872 113.697 30.56 114.273 31.008C114.849 31.424 115.665 31.632 116.721 31.632Z" fill="#121212"/>
<path d="M135.265 36V10.8H142.369V16.272H142.609C142.737 15.568 142.961 14.896 143.281 14.256C143.601 13.584 144.017 12.992 144.529 12.48C145.073 11.968 145.713 11.568 146.449 11.28C147.185 10.96 148.049 10.8 149.041 10.8H150.289V17.424H148.513C146.433 17.424 144.881 17.696 143.857 18.24C142.865 18.784 142.369 19.792 142.369 21.264V36H135.265Z" fill="#121212"/>
<path d="M169.94 31.776H169.7C169.508 32.448 169.204 33.088 168.788 33.696C168.372 34.272 167.86 34.784 167.252 35.232C166.676 35.648 166.004 35.968 165.236 36.192C164.5 36.448 163.732 36.576 162.932 36.576C159.732 36.576 157.316 35.456 155.684 33.216C154.052 30.944 153.236 27.664 153.236 23.376C153.236 19.088 154.052 15.824 155.684 13.584C157.316 11.344 159.732 10.224 162.932 10.224C164.564 10.224 166.004 10.672 167.252 11.568C168.532 12.464 169.348 13.616 169.7 15.024H169.94V0.47998H177.044V36H169.94V31.776ZM165.284 30.816C166.628 30.816 167.732 30.496 168.596 29.856C169.492 29.184 169.94 28.272 169.94 27.12V19.68C169.94 18.528 169.492 17.632 168.596 16.992C167.732 16.32 166.628 15.984 165.284 15.984C163.94 15.984 162.82 16.464 161.924 17.424C161.06 18.352 160.628 19.616 160.628 21.216V25.584C160.628 27.184 161.06 28.464 161.924 29.424C162.82 30.352 163.94 30.816 165.284 30.816Z" fill="#121212"/>
<path d="M193.911 36.576C192.055 36.576 190.391 36.272 188.919 35.664C187.479 35.056 186.247 34.176 185.223 33.024C184.231 31.872 183.463 30.48 182.919 28.848C182.375 27.216 182.103 25.392 182.103 23.376C182.103 21.36 182.375 19.536 182.919 17.904C183.463 16.272 184.231 14.896 185.223 13.776C186.247 12.624 187.479 11.744 188.919 11.136C190.391 10.528 192.055 10.224 193.911 10.224C195.767 10.224 197.415 10.528 198.855 11.136C200.327 11.744 201.559 12.624 202.551 13.776C203.575 14.896 204.359 16.272 204.903 17.904C205.447 19.536 205.719 21.36 205.719 23.376C205.719 25.392 205.447 27.216 204.903 28.848C204.359 30.48 203.575 31.872 202.551 33.024C201.559 34.176 200.327 35.056 198.855 35.664C197.415 36.272 195.767 36.576 193.911 36.576ZM193.911 30.96C195.319 30.96 196.407 30.528 197.175 29.664C197.943 28.8 198.327 27.568 198.327 25.968V20.832C198.327 19.232 197.943 18 197.175 17.136C196.407 16.272 195.319 15.84 193.911 15.84C192.503 15.84 191.415 16.272 190.647 17.136C189.879 18 189.495 19.232 189.495 20.832V25.968C189.495 27.568 189.879 28.8 190.647 29.664C191.415 30.528 192.503 30.96 193.911 30.96Z" fill="#121212"/>
</svg>
